<?xml version="1.0" encoding="utf-8"?>
<!-- Generator: Adobe Illustrator 15.0.0, SVG Export Plug-In . SVG Version: 6.00 Build 0)  -->
<!DOCTYPE svg PUBLIC "-//W3C//DTD SVG 1.1//EN" "http://www.w3.org/Graphics/SVG/1.1/DTD/svg11.dtd">
<svg version="1.1" id="Layer_1" xmlns="http://www.w3.org/2000/svg" xmlns:xlink="http://www.w3.org/1999/xlink" x="0px" y="0px"
	 width="140.667px" height="37.333px" viewBox="0 0 140.667 37.333" enable-background="new 0 0 140.667 37.333"
	 xml:space="preserve">
<g>
	<path fill-rule="evenodd" clip-rule="evenodd" fill="#325BAA" d="M23.25,2.096l-9.483,0c-0.076,2.501,0.229,4.507,0.995,5.916
		c6.159,0.019,9.237,0.028,9.237,0.028c2.95,0.093,5.266,1.429,5.474,4.077c0.057,7.545,0.085,11.318,0.085,11.318
		c0.09,2.618-0.623,4.491-2.139,5.616c-0.846,0.604-2.3,0.917-4.361,0.94c-9.436,0-14.155,0-14.155,0
		c0-6.655,0.043-11.057,0.071-13.176c0.013-0.979,0.002-1.544,0.002-1.544c-1.225-1.206-3.294-1.73-6.043-1.707
		C2.933,28.656,2.965,36,2.965,36c14.606-0.009,21.91-0.014,21.91-0.014c4.324-0.065,7.991-2.367,9.549-6.222
		c0.798-1.82,1.159-4.053,1.083-6.7c-0.019-6.918-0.028-10.377-0.028-10.377C35.146,5.753,29.758,2.094,23.25,2.096L23.25,2.096z"/>
	<path fill-rule="evenodd" clip-rule="evenodd" fill="#325BAA" d="M10.734,2.253c-0.014-0.78-0.681-1.084-1.469-1.083
		c-4.532-0.029-6.863,0-6.863,0C1.739,1.172,1.336,1.681,1.333,2.302c0.024,4.614,0.035,6.921,0.035,6.921
		c0.009,0.712,0.456,1.301,1.298,1.297c5.303,0,10.312,1.56,10.312,7.874c0,3.684,0,5.525,0,5.525
		c0.002,0.713,0.409,1.363,1.157,1.363l10.094,0.002c0.72-0.004,1.251-0.657,1.25-1.308c0-6.776,0-10.163,0-10.163
		c0.004-0.71-0.612-1.165-1.347-1.162l-6.559,0.003c-0.428,0-0.801-0.094-1.098-0.172C11.342,11.136,10.755,7.038,10.734,2.253
		L10.734,2.253z"/>
</g>
<text transform="matrix(1 0 0 1 40.0903 31.6157)" fill="#2859B3" font-family="'Mentone-SemiBold'" font-size="33.2955">trades</text>
</svg>
