<?xml version="1.0" encoding="utf-8"?>
<!-- Generator: Adobe Illustrator 15.0.0, SVG Export Plug-In . SVG Version: 6.00 Build 0)  -->
<!DOCTYPE svg PUBLIC "-//W3C//DTD SVG 1.1//EN" "http://www.w3.org/Graphics/SVG/1.1/DTD/svg11.dtd">
<svg version="1.1" id="Layer_1" xmlns="http://www.w3.org/2000/svg" xmlns:xlink="http://www.w3.org/1999/xlink" x="0px" y="0px"
	 width="140.667px" height="37.333px" viewBox="0 0 140.667 37.333" enable-background="new 0 0 140.667 37.333"
	 xml:space="preserve">
<g>
	<path fill="#FFFFFF" d="M23.25,2.096h-9.483c-0.076,2.501,0.229,4.507,0.995,5.916c6.159,0.019,9.237,0.028,9.237,0.028
		c2.95,0.093,5.266,1.429,5.474,4.077c0.057,7.545,0.085,11.318,0.085,11.318c0.09,2.618-0.623,4.491-2.139,5.616
		c-0.846,0.604-2.3,0.916-4.361,0.939c-9.436,0-14.155,0-14.155,0c0-6.654,0.043-11.058,0.071-13.177
		c0.013-0.979,0.002-1.544,0.002-1.544c-1.225-1.206-3.294-1.73-6.043-1.707C2.933,28.657,2.965,36,2.965,36
		c14.606-0.01,21.91-0.016,21.91-0.016c4.324-0.064,7.991-2.365,9.549-6.222c0.798-1.82,1.159-4.054,1.083-6.7
		c-0.019-6.918-0.028-10.377-0.028-10.377C35.146,5.753,29.758,2.094,23.25,2.096L23.25,2.096z"/>
	<path fill="#FFFFFF" d="M10.734,2.253c-0.014-0.78-0.681-1.084-1.469-1.083c-4.532-0.029-6.863,0-6.863,0
		C1.739,1.172,1.336,1.681,1.333,2.302c0.024,4.614,0.035,6.921,0.035,6.921c0.009,0.712,0.456,1.301,1.298,1.297
		c5.303,0,10.312,1.56,10.312,7.874c0,3.685,0,5.524,0,5.524c0.002,0.713,0.409,1.363,1.157,1.363l10.094,0.002
		c0.72-0.005,1.251-0.656,1.25-1.309c0-6.776,0-10.163,0-10.163c0.004-0.71-0.612-1.165-1.347-1.162l-6.559,0.003
		c-0.428,0-0.801-0.094-1.098-0.172C11.342,11.136,10.755,7.038,10.734,2.253L10.734,2.253z"/>
</g>
<g enable-background="new    ">
	<path fill="#FFFFFF" d="M47.98,14.968h3.33c0.167,0,0.3,0.134,0.333,0.333c0,0,0.333,2.563,0.333,2.664
		c0,0.199-0.133,0.332-0.333,0.332H47.98v6.993c0,2.197,0.566,3.33,1.665,3.33c0.632,0,1.831-0.334,1.998-0.334
		c0.133,0,0.3,0.133,0.333,0.266c0,0,0.333,2.498,0.333,2.664s-0.133,0.334-0.333,0.4c0,0-1.332,0.332-2.664,0.332
		c-4.128,0-5.327-2.963-5.327-6.658v-6.993h-2.997c-0.133,0-0.3-0.133-0.333-0.332c0,0-0.333-2.531-0.333-2.664
		c0-0.199,0.133-0.333,0.333-0.333h3.33V8.975c0-0.199,0.133-0.333,0.333-0.333l3.33-0.333c0.2,0,0.333,0.134,0.333,0.333V14.968z"
		/>
	<path fill="#FFFFFF" d="M66.759,15.301c0,0,0.333,2.53,0.333,2.664c0,0.199-0.133,0.332-0.333,0.332
		c-0.167,0-2.098-0.332-2.664-0.332c-2.764,0-4.329,1.364-4.329,3.995v9.322c0,0.201-0.133,0.334-0.333,0.334h-3.329
		c-0.2,0-0.333-0.133-0.333-0.334v-13.65c0-1.332-0.333-2.198-0.333-2.331c0-0.199,0.133-0.333,0.333-0.333h3.33
		c0.133,0,0.299,0.134,0.333,0.333l0.267,1.165c0.732-0.799,2.064-1.831,4.395-1.831c0.999,0,2.331,0.333,2.331,0.333
		C66.559,15.001,66.726,15.135,66.759,15.301z"/>
	<path fill="#FFFFFF" d="M79.511,30.284c-0.666,0.732-2.098,1.664-4.828,1.664c-2.031,0-5.993-0.998-5.993-5.326
		c0-3.43,2.63-5.328,6.991-5.328c0.967,0,3.663,0.334,3.663,0.334v-1.465c0-1.299-1.132-2.198-3.329-2.198
		c-2.331,0-5.661,1.331-5.994,1.331c-0.2,0-0.333-0.132-0.333-0.333c0-0.066,0.333-2.663,0.333-2.663
		c0.034-0.134,0.167-0.267,0.333-0.333c0.133-0.066,2.963-1.332,5.661-1.332c4.361,0,7.324,1.998,7.324,5.327v8.658
		c0,1.664,0.333,2.496,0.333,2.662c0,0.201-0.133,0.334-0.333,0.334H80.01c-0.134,0-0.267-0.1-0.333-0.334L79.511,30.284z
		 M79.344,25.29v-0.666h-3.663c-1.631,0-2.996,0.799-2.996,1.998c0,1.797,1.232,1.998,1.998,1.998
		C76.914,28.62,79.344,28.352,79.344,25.29z"/>
	<path fill="#FFFFFF" d="M99.255,30.184c0,0-1.932,1.764-4.429,1.764c-6.692,0-7.657-3.895-7.657-8.656
		c0-4.761,0.965-8.657,7.657-8.657c2.03,0,3.529,0.966,4.328,1.665V6.978c0-0.2,0.167-0.333,0.333-0.333
		c0.199,0,3.33,0.333,3.33,0.333c0.199,0.033,0.332,0.133,0.332,0.333V28.62c0,1.664,0.334,2.463,0.334,2.662
		c0,0.201-0.134,0.334-0.334,0.334h-3.329c-0.134,0-0.267-0.133-0.333-0.334C99.455,31.049,99.255,30.184,99.255,30.184z
		 M94.827,17.965c-3.063,0-3.663,2.331-3.663,5.327s0.6,5.328,3.663,5.328c3.396,0,4.262-2.098,4.328-5.328
		C99.155,20.295,98.222,17.965,94.827,17.965z"/>
	<path fill="#FFFFFF" d="M111.275,24.956c0.266,2.131,1.164,3.664,4.494,3.664c2.664,0,5.494-0.666,5.66-0.666
		c0.199,0,0.333,0.133,0.333,0.332c0,0.1-0.333,2.664-0.333,2.664c-0.033,0.166-0.133,0.299-0.333,0.332
		c0,0-2.331,0.666-5.327,0.666c-7.158,0-8.656-3.895-8.656-8.656c0-4.761,1.531-8.624,8.323-8.624c4.728,0,7.358,2.631,7.358,8.624
		v1.332c0,0.166-0.166,0.332-0.366,0.332H111.275z M111.275,21.627h7.457c-0.133-1.865-0.965-3.663-3.296-3.663
		C112.273,17.965,111.507,19.53,111.275,21.627z"/>
	<path fill="#FFFFFF" d="M132.716,28.62c1.465,0,1.998-0.467,1.998-1.332c0-1.066-0.998-1.498-2.664-1.998
		c-3.029-0.898-6.325-2.131-6.325-5.994c0-2.83,1.831-4.661,5.993-4.661c2.996,0,5.326,0.666,5.326,0.666
		c0.168,0.066,0.301,0.2,0.334,0.333c0,0,0.332,2.53,0.332,2.663c0,0.2-0.133,0.333-0.332,0.333c-0.166,0-2.83-0.665-5.66-0.665
		c-1.332,0-1.998,0.466-1.998,1.331c0,1.066,1,1.5,2.664,1.998c3.029,0.898,6.326,2.098,6.326,5.994c0,2.662-2.164,4.66-5.994,4.66
		c-3.662,0-6.325-0.998-6.325-0.998c-0.167-0.066-0.3-0.199-0.333-0.334c0,0-0.333-2.529-0.333-2.662
		c0-0.201,0.134-0.334,0.333-0.334C126.224,27.62,129.72,28.62,132.716,28.62z"/>
</g>
</svg>
